<?xml version="1.0" encoding="UTF-8" ?>
<!DOCTYPE svg PUBLIC "-//W3C//DTD SVG 1.1//EN" "http://www.w3.org/Graphics/SVG/1.1/DTD/svg11.dtd">
<svg width="386pt" height="302pt" viewBox="0 0 386 302" version="1.1" xmlns="http://www.w3.org/2000/svg">
<path fill="#3b5aa3" stroke="#3b5aa3" stroke-width="0.09375" opacity="1.00" d=" M 0.0 0.0 L 31.8 0.0 C 31.7 26.9 31.8 53.8 31.7 80.7 C 21.1 80.8 10.6 80.7 0.0 80.8 L 0.0 0.0 Z" />
<path fill="#ffffff" stroke="#ffffff" stroke-width="0.09375" opacity="1.00" d=" M 31.8 0.0 L 64.2 0.0 C 64.3 26.9 64.2 53.8 64.3 80.7 C 75.4 80.8 86.6 80.8 97.7 80.7 C 97.8 53.8 97.7 26.9 97.8 0.0 L 102.0 0.0 C 102.0 28.1 102.0 56.1 102.0 84.2 C 68.0 84.3 34.0 84.2 0.0 84.2 L 0.0 80.8 C 10.6 80.7 21.1 80.8 31.7 80.7 C 31.8 53.8 31.7 26.9 31.8 0.0 Z" />
<path fill="#be0027" stroke="#be0027" stroke-width="0.09375" opacity="1.00" d=" M 64.2 0.0 L 97.8 0.0 C 97.7 26.9 97.8 53.8 97.7 80.7 C 86.6 80.8 75.4 80.8 64.3 80.7 C 64.2 53.8 64.3 26.9 64.2 0.0 Z" />
<path fill="#be0027" stroke="#be0027" stroke-width="0.09375" opacity="1.00" d=" M 102.0 0.0 L 386.0 0.0 L 386.0 299.0 C 257.3 299.0 128.7 299.0 0.0 299.0 L 0.0 84.2 C 34.0 84.2 68.0 84.3 102.0 84.2 C 102.0 56.1 102.0 28.1 102.0 0.0 M 173.7 76.3 C 191.2 98.4 202.1 125.8 204.1 154.0 C 175.5 151.6 148.2 140.4 124.3 124.9 C 124.2 151.5 124.3 178.2 124.2 204.8 C 146.7 186.4 175.2 175.8 204.1 174.0 C 201.9 203.0 190.7 231.1 172.8 254.0 C 199.6 254.0 226.5 254.0 253.3 254.0 C 238.1 230.0 226.7 202.9 224.4 174.4 C 252.5 176.9 279.6 188.2 302.0 205.4 C 302.0 178.5 302.0 151.7 302.0 124.8 C 278.6 139.8 252.2 150.8 224.4 153.7 C 227.2 125.9 238.4 99.7 253.2 76.3 C 226.7 76.2 200.2 76.2 173.7 76.3 Z" />
<path fill="#ffffff" stroke="#ffffff" stroke-width="0.09375" opacity="1.00" d=" M 173.7 76.3 C 200.2 76.2 226.7 76.2 253.2 76.3 C 238.4 99.7 227.2 125.9 224.4 153.7 C 252.2 150.8 278.6 139.8 302.0 124.8 C 302.0 151.7 302.0 178.5 302.0 205.4 C 279.6 188.2 252.5 176.9 224.4 174.4 C 226.7 202.9 238.1 230.0 253.3 254.0 C 226.5 254.0 199.6 254.0 172.8 254.0 C 190.7 231.1 201.9 203.0 204.1 174.0 C 175.2 175.8 146.7 186.4 124.2 204.8 C 124.3 178.2 124.2 151.5 124.3 124.9 C 148.2 140.4 175.5 151.6 204.1 154.0 C 202.1 125.8 191.2 98.4 173.7 76.3 Z" />
<path fill="#5f0013" stroke="#5f0013" stroke-width="0.09375" opacity="1.00" d=" M 0.0 299.0 C 128.7 299.0 257.3 299.0 386.0 299.0 L 386.0 300.0 C 302.3 300.3 218.7 300.1 135.0 300.2 C 90.0 300.1 45.0 300.3 0.0 300.0 L 0.0 299.0 Z" />
<path fill="#808080" stroke="#808080" stroke-width="0.09375" opacity="1.00" d=" M 0.0 300.0 C 45.0 300.3 90.0 300.1 135.0 300.2 C 218.7 300.1 302.3 300.3 386.0 300.0 L 386.0 301.0 C 298.3 300.7 210.7 300.9 123.0 300.9 C 82.0 300.9 41.0 300.7 0.0 301.0 L 0.0 300.0 Z" />
<path fill="#ffffff" stroke="#ffffff" stroke-width="0.09375" opacity="1.00" d=" M 0.0 301.0 C 41.0 300.7 82.0 300.9 123.0 300.9 C 210.7 300.9 298.3 300.7 386.0 301.0 L 386.0 302.0 L 0.0 302.0 L 0.0 301.0 Z" />
</svg>
